HIERARCHY
ROOT Hips
{
	OFFSET 0.000000 0.000000 0.000000
	CHANNELS 6 Xposition Yposition Zposition Zrotation Yrotation Xrotation 
	JOINT LeftUpLeg_virtual
	{
		OFFSET 0.000000 0.000000 0.000000
		CHANNELS 3 Zrotation Yrotation Xrotation
		JOINT LeftUpLeg
		{
			OFFSET 10.205400 -3.823500 0.155100
			CHANNELS 3 Zrotation Yrotation Xrotation
			JOINT LeftLeg
			{
				OFFSET 0.708757 -12.982077 0.567790
				CHANNELS 3 Zrotation Yrotation Xrotation
				JOINT LeftFoot
				{
					OFFSET -0.708756 -10.717838 -2.184338
					CHANNELS 3 Zrotation Yrotation Xrotation
					JOINT LeftToeBase
					{
						OFFSET 0.108149 -7.191104 7.560241
						CHANNELS 3 Zrotation Yrotation Xrotation
						End Site
						{
							OFFSET 0.000000 0.000000 0.000000
						}
					}
				}
			}
		}
	}
	JOINT RightUpLeg_virtual
	{
		OFFSET 0.000000 0.000000 0.000000
		CHANNELS 3 Zrotation Yrotation Xrotation
		JOINT RightUpLeg
		{
			OFFSET -10.205400 -3.823500 0.005500
			CHANNELS 3 Zrotation Yrotation Xrotation
			JOINT RightLeg
			{
				OFFSET -0.708756 -12.982134 0.610632
				CHANNELS 3 Zrotation Yrotation Xrotation
				JOINT RightFoot
				{
					OFFSET 0.708754 -10.717769 -1.945823
					CHANNELS 3 Zrotation Yrotation Xrotation
					JOINT RightToeBase
					{
						OFFSET -0.108140 -7.191069 7.372968
						CHANNELS 3 Zrotation Yrotation Xrotation
						End Site
						{
							OFFSET 0.000000 0.000000 0.000000
						}
					}
				}
			}
		}
	}
	JOINT Spine_virtual
	{
		OFFSET 0.000000 0.000000 0.000000
		CHANNELS 3 Zrotation Yrotation Xrotation
		JOINT Spine
		{
			OFFSET 0.000000 6.876099 0.125700
			CHANNELS 3 Zrotation Yrotation Xrotation
			JOINT Spine1
			{
				OFFSET 0.000000 8.022060 0.146608
				CHANNELS 3 Zrotation Yrotation Xrotation
				JOINT Spine2
				{
					OFFSET 0.000000 9.168068 0.167552
					CHANNELS 3 Zrotation Yrotation Xrotation
					JOINT Neck_virtual
					{
						OFFSET 0.000000 0.000000 0.000000
						CHANNELS 3 Zrotation Yrotation Xrotation
						JOINT Neck
						{
							OFFSET 0.000000 10.314075 0.188496
							CHANNELS 3 Zrotation Yrotation Xrotation
							JOINT Head
							{
								OFFSET 0.000000 7.643700 -2.377400
								CHANNELS 3 Zrotation Yrotation Xrotation
								End Site
								{
									OFFSET 0.000000 0.000000 0.000000
								}
							}
						}
					}
					JOINT LeftShoulder_virtual
					{
						OFFSET 0.000000 0.000000 0.000000
						CHANNELS 3 Zrotation Yrotation Xrotation
						JOINT LeftShoulder
						{
							OFFSET 4.392200 8.824978 0.174984
							CHANNELS 3 Zrotation Yrotation Xrotation
							JOINT LeftArm
							{
								OFFSET 8.771219 -2.981674 -0.026999
								CHANNELS 3 Zrotation Yrotation Xrotation
								JOINT LeftForeArm
								{
									OFFSET 8.512804 0.000000 -0.000000
									CHANNELS 3 Zrotation Yrotation Xrotation
									JOINT LeftHand
									{
										OFFSET 18.484802 0.000000 -0.000000
										CHANNELS 3 Zrotation Yrotation Xrotation
										End Site
										{
											OFFSET 0.000000 0.000000 0.000000
										}
									}
								}
							}
						}
					}
					JOINT RightShoulder_virtual
					{
						OFFSET 0.000000 0.000000 0.000000
						CHANNELS 3 Zrotation Yrotation Xrotation
						JOINT RightShoulder
						{
							OFFSET -4.392200 8.824993 0.141379
							CHANNELS 3 Zrotation Yrotation Xrotation
							JOINT RightArm
							{
								OFFSET -8.771282 -2.981682 -0.094208
								CHANNELS 3 Zrotation Yrotation Xrotation
								JOINT RightForeArm
								{
									OFFSET -8.494598 0.000000 0.000000
									CHANNELS 3 Zrotation Yrotation Xrotation
									JOINT RightHand
									{
										OFFSET -18.483803 0.000000 0.000001
										CHANNELS 3 Zrotation Yrotation Xrotation
										End Site
										{
											OFFSET 0.000000 0.000000 0.000000
										}
									}
								}
							}
						}
					}
				}
			}
		}
	}
}
MOTION
Frames: 11
Frame Time: 0.033333
0.550129 36.513847 17.906521 -179.849509 -17.382953 178.888924 -4.310168 -7.357441 13.667372 -0.570186 -0.912413 -21.410442 1.599592 11.338072 12.851239 0.724593 -1.720963 8.414884 0.000000 0.000000 0.000000 0.245732 -8.429054 13.649035 -0.485746 -20.211035 -14.406979 -5.376089 -0.845676 13.403165 7.429309 4.903666 11.731249 0.000000 0.000000 0.000000 -2.380834 -4.576812 5.222238 -4.207368 7.561706 -12.344472 -0.192768 -2.551917 10.000651 -0.080871 -0.008728 -0.128653 0.186318 -1.227925 8.873221 7.965554 -6.565028 13.875299 0.000000 0.000000 0.000000 1.280821 -1.182382 5.328507 -7.615815 -7.996126 2.741154 -45.454844 2.317470 13.920646 -178.304656 -86.092895 -161.677053 0.000000 0.000000 0.000000 -2.124456 0.099343 4.233896 10.986474 17.082824 3.293580 18.330892 21.986840 5.480073 -16.126464 82.405215 -15.635065 0.000000 0.000000 0.000000 
0.422644 36.502537 17.867022 -179.803801 -16.701247 178.934318 -4.372573 -6.888233 14.050819 -0.617890 -0.962340 -22.018549 1.540542 11.274240 13.241565 0.962394 -1.661444 8.249600 0.000000 0.000000 0.000000 0.239387 -7.963510 14.128960 -0.388629 -20.404446 -14.982536 -5.676762 -0.787592 13.084763 7.938161 5.156905 12.099771 0.000000 0.000000 0.000000 -2.624821 -4.184146 5.588187 -4.482339 7.110287 -12.677622 -0.127158 -2.558462 10.166714 -0.039914 -0.002196 -0.100316 0.277423 -1.161728 9.022281 8.046372 -6.398520 13.730027 0.000000 0.000000 0.000000 1.392111 -1.295902 5.562656 -7.559629 -8.122324 2.705538 -45.198029 2.549102 13.476022 -176.562958 -86.313101 -163.354615 0.000000 0.000000 0.000000 -2.045066 0.019448 4.326141 10.284708 15.902950 3.353630 19.780677 18.719860 7.853343 -29.307239 86.113147 -29.486029 0.000000 0.000000 0.000000 
0.283423 36.498363 17.833158 -179.828458 -15.937949 179.049051 -4.519003 -6.571354 14.490149 -0.728072 -0.909389 -22.675606 1.561923 11.044155 13.585852 1.226895 -1.506496 8.180693 0.000000 0.000000 0.000000 0.188560 -7.713748 14.531724 -0.254708 -20.535102 -15.433325 -5.976693 -0.377033 12.483663 8.449922 5.307843 12.657442 0.000000 0.000000 0.000000 -2.908863 -3.996613 5.863695 -4.752280 6.751970 -12.970566 -0.083121 -2.538843 10.277268 -0.054558 0.093990 -0.097472 0.271700 -1.392044 9.166775 7.837202 -6.082560 13.458837 0.000000 0.000000 0.000000 1.394562 -1.301274 5.723224 -7.477110 -8.387932 2.718518 -44.823185 2.509150 13.261685 -174.686528 -86.536940 -165.190898 0.000000 0.000000 0.000000 -1.989651 0.010705 4.572353 9.709138 14.824010 3.535812 20.634807 14.038528 9.528356 -46.948869 87.319488 -47.643541 0.000000 0.000000 0.000000 
0.126005 36.505302 17.807585 -179.809880 -15.343535 179.150753 -4.672050 -6.411516 14.886408 -0.937485 -0.840079 -23.258239 1.637006 10.709747 13.848717 1.503772 -1.263993 8.199535 0.000000 0.000000 0.000000 0.204543 -7.581718 14.727326 -0.413382 -20.659295 -15.724477 -6.131406 -0.128871 11.802724 9.002749 5.542937 13.076453 0.000000 0.000000 0.000000 -3.114087 -4.225856 6.115975 -4.958310 6.497441 -13.181193 -0.123716 -2.397345 10.395308 -0.014590 0.126012 -0.076980 0.210818 -1.116477 9.219876 7.442824 -5.742994 13.006560 0.000000 0.000000 0.000000 1.310073 -1.271798 5.845893 -7.454434 -8.584368 2.857799 -44.711815 2.218838 13.183698 -174.766291 -86.644037 -165.075646 0.000000 0.000000 0.000000 -2.031125 0.026025 4.752673 9.353318 14.049698 3.626661 20.603295 9.155077 10.203470 -35.523814 86.578003 -36.503195 0.000000 0.000000 0.000000 
-0.031201 36.518276 17.798834 -179.864002 -14.962199 179.204752 -4.907267 -6.442491 15.215401 -1.244823 -0.689481 -23.673326 1.673089 10.281569 14.054800 1.761135 -0.900482 8.307615 0.000000 0.000000 0.000000 0.134790 -7.678883 14.839832 -0.545098 -20.923016 -15.838584 -6.313805 0.072070 11.214279 9.629826 5.707042 13.382956 0.000000 0.000000 0.000000 -3.338718 -3.936074 6.412752 -5.092173 6.068904 -13.279677 -0.259723 -2.624731 10.460599 -0.055697 0.122198 -0.067066 0.050825 -1.454861 9.104614 6.952486 -5.490197 12.553075 0.000000 0.000000 0.000000 1.273869 -1.195604 5.901326 -7.442227 -8.778209 3.066306 -44.608252 1.891807 13.206707 -176.020750 -86.623738 -163.779918 0.000000 0.000000 0.000000 -2.065705 0.074353 4.904259 9.183062 13.668308 3.888647 19.739315 5.124345 9.900865 -19.829147 83.419450 -20.832654 0.000000 0.000000 0.000000 
-0.193792 36.528015 17.794912 -179.773953 -14.805451 179.219943 -4.956743 -6.696292 15.455313 -1.599495 -0.620617 -23.933490 1.830883 9.982732 14.236039 1.950172 -0.512328 8.404030 0.000000 0.000000 0.000000 0.202708 -7.974730 14.920770 -0.789679 -21.272406 -15.812581 -6.279059 0.098089 10.770340 10.178041 5.869611 13.584057 0.000000 0.000000 0.000000 -3.414917 -4.020416 6.669433 -5.051669 6.019993 -13.342885 -0.458180 -2.539100 10.466505 0.014121 0.008465 -0.114754 -0.151655 -1.371791 9.100075 6.435643 -5.130107 12.062460 0.000000 0.000000 0.000000 1.084491 -1.177968 5.978652 -7.395364 -9.078845 3.113346 -44.677166 1.517321 13.278999 -173.608492 -86.587688 -166.141975 0.000000 0.000000 0.000000 -2.184698 0.043225 5.064243 9.250280 13.675235 4.014906 18.284141 2.573848 8.776358 -11.601801 78.231559 -12.351577 0.000000 0.000000 0.000000 
-0.362890 36.531635 17.780506 -179.829114 -14.612785 179.268464 -5.076717 -6.896205 15.679821 -2.070594 -0.270783 -24.089094 1.871764 9.684909 14.312176 2.125330 -0.028514 8.475682 0.000000 0.000000 0.000000 0.132262 -8.193675 14.974215 -1.146969 -21.606812 -15.838273 -6.200438 -0.002039 10.564670 10.824107 5.962904 13.799632 0.000000 0.000000 0.000000 -3.536384 -4.252239 6.821417 -5.070906 6.074933 -13.342331 -0.575643 -2.477965 10.452896 -0.017467 0.024062 -0.098062 -0.282495 -1.195274 8.933728 5.983680 -5.168170 11.505781 0.000000 0.000000 0.000000 1.000587 -1.093056 5.879261 -7.371984 -9.329076 3.258962 -44.853647 1.158791 13.653230 -173.694374 -86.520301 -165.977217 0.000000 0.000000 0.000000 -2.287662 0.158220 5.094868 9.395564 14.155715 4.281553 16.509561 1.854929 7.058152 -8.756318 71.849977 -9.013092 0.000000 0.000000 0.000000 
-0.531831 36.527546 17.755089 -179.857937 -14.475194 179.279475 -5.192814 -7.152415 15.904809 -2.571766 0.105313 -24.152495 1.876450 9.466633 14.348182 2.286032 0.413717 8.450850 0.000000 0.000000 0.000000 0.067866 -8.516750 15.042874 -1.641000 -21.885190 -15.934401 -5.890770 -0.148237 10.504025 11.419801 5.902733 14.054144 0.000000 0.000000 0.000000 -3.615456 -4.509412 7.077106 -4.979369 6.235728 -13.379768 -0.730356 -2.424354 10.355870 -0.032691 -0.005503 -0.105900 -0.515474 -1.297433 8.804706 5.604400 -5.225613 11.109018 0.000000 0.000000 0.000000 0.862270 -1.013393 5.844664 -7.293311 -9.533665 3.172359 -45.071845 0.981836 14.390500 -174.912279 -86.423572 -164.652201 0.000000 0.000000 0.000000 -2.391868 0.225220 5.088809 9.697380 14.828146 4.512857 14.656952 2.705382 4.712665 -7.606415 65.552365 -7.211035 0.000000 0.000000 0.000000 
-0.711247 36.522659 17.715067 -179.933397 -14.289697 179.316631 -5.361605 -7.386424 16.089844 -3.078426 0.434467 -24.107778 1.969682 9.406595 14.350038 2.454705 0.711419 8.325934 0.000000 0.000000 0.000000 0.004743 -8.851061 15.066535 -2.168038 -22.210510 -16.134008 -5.728259 -0.327141 10.562763 11.690830 6.828917 14.404239 0.000000 0.000000 0.000000 -3.718374 -4.951488 7.162854 -4.853617 6.474599 -13.358378 -0.891708 -2.350977 10.337620 -0.002959 -0.014915 -0.094877 -0.697024 -1.139744 8.672894 5.564369 -5.247638 10.731114 0.000000 0.000000 0.000000 0.706385 -0.817215 5.653234 -7.234706 -9.615971 3.311609 -45.345674 0.692399 15.001174 -176.465314 -86.426693 -162.971210 0.000000 0.000000 0.000000 -2.532517 0.399051 5.088576 10.126934 15.723376 4.625661 12.928792 4.766001 1.866528 -7.150965 59.876020 -6.038368 0.000000 0.000000 0.000000 
-0.885235 36.516556 17.677637 -179.976714 -14.054976 179.329977 -5.447706 -7.601083 16.201286 -3.591576 0.954020 -23.961320 2.012546 9.407316 14.327980 2.606208 0.851869 8.150169 0.000000 0.000000 0.000000 -0.029458 -9.192403 15.025364 -2.627395 -22.423374 -16.399843 -5.701263 -0.373939 10.759658 12.181957 7.356355 14.826042 0.000000 0.000000 0.000000 -3.786863 -5.244238 7.236484 -4.706140 6.810922 -13.335541 -1.006257 -2.242396 10.273200 -0.004264 -0.010265 -0.102278 -0.770178 -1.040456 8.597112 5.708631 -5.381979 10.513463 0.000000 0.000000 0.000000 0.560628 -0.757779 5.608156 -7.133286 -9.687313 3.355012 -45.510654 0.625066 15.320261 -176.668758 -86.361909 -162.617542 0.000000 0.000000 0.000000 -2.620268 0.482008 4.970714 10.695802 16.470419 4.832865 11.459468 7.447675 -1.349765 -7.242850 55.954522 -5.457930 0.000000 0.000000 0.000000 
-1.041856 36.513641 17.628805 -179.954721 -13.833771 179.325674 -5.459047 -7.774049 16.203761 -4.113162 1.445552 -23.693648 2.183624 9.458897 14.300879 2.687138 0.765008 7.984141 0.000000 0.000000 0.000000 -0.002335 -9.504409 14.896115 -3.074183 -22.559492 -16.638718 -5.690780 -0.223870 11.105614 12.761191 7.449434 15.247977 0.000000 0.000000 0.000000 -3.833275 -5.395623 7.309261 -4.567321 7.195308 -13.290377 -1.059814 -2.120306 10.163257 0.001270 0.020063 -0.089640 -0.807424 -0.997277 8.612068 6.049659 -5.611268 10.440048 0.000000 0.000000 0.000000 0.489986 -0.752973 5.617147 -7.007253 -9.734791 3.125465 -45.635847 0.833268 15.722573 -178.404200 -86.350038 -160.730184 0.000000 0.000000 0.000000 -2.722377 0.417979 4.912452 11.349596 16.909967 4.991676 10.353886 10.618547 -4.523742 -7.558148 53.902596 -5.225957 0.000000 0.000000 0.000000 
